<svg width="20" height="20" viewBox="0 0 30 30" fill="none" xmlns="http://www.w3.org/2000/svg">
<g clip-path="url(#clip0)">
<path d="M29.9841 15.2806C29.9841 14.0515 29.882 13.1546 29.6611 12.2245H15.2987V17.772H23.7291C23.5592 19.1506 22.6414 21.2268 20.6017 22.6219L20.5731 22.8076L25.1143 26.2454L25.4289 26.2761C28.3183 23.6683 29.9841 19.8315 29.9841 15.2806Z" fill="#4285F4"/>
<path d="M15.2988 29.897C19.429 29.897 22.8963 28.5681 25.4289 26.2761L20.6018 22.622C19.31 23.5023 17.5763 24.1168 15.2988 24.1168C11.2535 24.1168 7.82016 21.5092 6.59626 17.905L6.41686 17.9199L1.69493 21.4909L1.63318 21.6586C4.1487 26.5418 9.31578 29.897 15.2988 29.897Z" fill="#34A853"/>
<path d="M6.59695 17.905C6.27401 16.9749 6.08712 15.9782 6.08712 14.9485C6.08712 13.9187 6.27401 12.9221 6.57996 11.992L6.5714 11.7939L1.79029 8.16553L1.63386 8.23824C0.597097 10.2646 0.00219727 12.5401 0.00219727 14.9485C0.00219727 17.3569 0.597097 19.6323 1.63386 21.6587L6.59695 17.905Z" fill="#FBBC05"/>
<path d="M15.2988 5.78004C18.1712 5.78004 20.1088 6.99252 21.2137 8.00576L25.5309 3.8866C22.8794 1.47824 19.429 0 15.2988 0C9.31579 0 4.1487 3.35508 1.63318 8.23821L6.57927 11.992C7.82016 8.38775 11.2535 5.78004 15.2988 5.78004Z" fill="#EB4335"/>
</g>
<defs>
<clipPath id="clip0">
<rect width="30" height="30" fill="white"/>
</clipPath>
</defs>
</svg>
